<mxfile host="app.diagrams.net" modified="2023-12-28T02:32:55.703Z" agent="Mozilla/5.0 (Macintosh; Intel Mac OS X 10_15_7) AppleWebKit/537.36 (KHTML, like Gecko) Chrome/120.0.0.0 Safari/537.36" etag="IcjOmtrzYhBJFCOJfBBp" version="21.6.6" type="google">
  <diagram id="DopoIyxbw7Knea58nadR" name="Page-1">
    <mxGraphModel grid="0" page="1" gridSize="10" guides="1" tooltips="1" connect="1" arrows="1" fold="1" pageScale="1" pageWidth="827" pageHeight="1169" background="#ffffff" math="0" shadow="0">
      <root>
        <mxCell id="0" />
        <mxCell id="1" parent="0" />
        <mxCell id="6DbhtjGuhQsdtJKNO_AA-19" style="edgeStyle=orthogonalEdgeStyle;rounded=0;orthogonalLoop=1;jettySize=auto;html=1;entryX=0;entryY=0.5;entryDx=0;entryDy=0;exitX=0.5;exitY=0;exitDx=0;exitDy=0;elbow=vertical;strokeWidth=34;curved=1;endArrow=none;endFill=0;shape=link;flowAnimation=0;" edge="1" parent="1" source="6DbhtjGuhQsdtJKNO_AA-1" target="6DbhtjGuhQsdtJKNO_AA-3">
          <mxGeometry relative="1" as="geometry" />
        </mxCell>
        <mxCell id="6DbhtjGuhQsdtJKNO_AA-1" value="Define Proof of Concept" style="rounded=1;whiteSpace=wrap;html=1;fillColor=#0050ef;strokeColor=#001DBC;fontColor=#ffffff;" vertex="1" parent="1">
          <mxGeometry x="46" y="220" width="120" height="60" as="geometry" />
        </mxCell>
        <mxCell id="lDhl-UMNISzQaXPUwUom-3" style="edgeStyle=orthogonalEdgeStyle;shape=link;curved=1;rounded=0;orthogonalLoop=1;jettySize=auto;html=1;strokeWidth=34;endArrow=none;endFill=0;elbow=vertical;" edge="1" parent="1" source="6DbhtjGuhQsdtJKNO_AA-3" target="6DbhtjGuhQsdtJKNO_AA-5">
          <mxGeometry relative="1" as="geometry" />
        </mxCell>
        <mxCell id="6DbhtjGuhQsdtJKNO_AA-3" value="Which Object Do I need to Migrate?" style="rounded=1;whiteSpace=wrap;html=1;fillColor=#f0a30a;strokeColor=#BD7000;fontColor=#000000;" vertex="1" parent="1">
          <mxGeometry x="400" y="187" width="120" height="84" as="geometry" />
        </mxCell>
        <mxCell id="lDhl-UMNISzQaXPUwUom-4" style="edgeStyle=orthogonalEdgeStyle;shape=link;curved=1;rounded=0;orthogonalLoop=1;jettySize=auto;html=1;strokeWidth=34;endArrow=none;endFill=0;elbow=vertical;" edge="1" parent="1" source="6DbhtjGuhQsdtJKNO_AA-5" target="6DbhtjGuhQsdtJKNO_AA-7">
          <mxGeometry relative="1" as="geometry" />
        </mxCell>
        <mxCell id="6DbhtjGuhQsdtJKNO_AA-5" value="Are my Datatypes compatible?" style="rounded=1;whiteSpace=wrap;html=1;fillColor=#f0a30a;strokeColor=#BD7000;fontColor=#000000;" vertex="1" parent="1">
          <mxGeometry x="693" y="230" width="120" height="92" as="geometry" />
        </mxCell>
        <mxCell id="lDhl-UMNISzQaXPUwUom-5" style="edgeStyle=orthogonalEdgeStyle;shape=link;curved=1;rounded=0;orthogonalLoop=1;jettySize=auto;html=1;entryX=0.5;entryY=0;entryDx=0;entryDy=0;strokeWidth=34;endArrow=none;endFill=0;elbow=vertical;exitX=0.5;exitY=1;exitDx=0;exitDy=0;" edge="1" parent="1" source="6DbhtjGuhQsdtJKNO_AA-7" target="6DbhtjGuhQsdtJKNO_AA-9">
          <mxGeometry relative="1" as="geometry">
            <mxPoint x="697.5" y="676" as="sourcePoint" />
          </mxGeometry>
        </mxCell>
        <mxCell id="6DbhtjGuhQsdtJKNO_AA-7" value="What is my target and how should i configure it to get the required or required desired capacity?" style="rounded=1;whiteSpace=wrap;html=1;fillColor=#e51400;strokeColor=#B20000;fontColor=#ffffff;" vertex="1" parent="1">
          <mxGeometry x="629" y="438" width="180" height="100" as="geometry" />
        </mxCell>
        <mxCell id="lDhl-UMNISzQaXPUwUom-6" style="edgeStyle=orthogonalEdgeStyle;shape=link;curved=1;rounded=0;orthogonalLoop=1;jettySize=auto;html=1;entryX=1;entryY=0.617;entryDx=0;entryDy=0;entryPerimeter=0;strokeWidth=34;endArrow=none;endFill=0;elbow=vertical;" edge="1" parent="1" source="6DbhtjGuhQsdtJKNO_AA-9" target="6DbhtjGuhQsdtJKNO_AA-11">
          <mxGeometry relative="1" as="geometry" />
        </mxCell>
        <mxCell id="6DbhtjGuhQsdtJKNO_AA-9" value="Design the Migration" style="whiteSpace=wrap;html=1;rounded=1;fillColor=#f0a30a;fontColor=#000000;strokeColor=#BD7000;" vertex="1" parent="1">
          <mxGeometry x="706.5" y="824" width="120" height="101" as="geometry" />
        </mxCell>
        <mxCell id="lDhl-UMNISzQaXPUwUom-7" style="edgeStyle=orthogonalEdgeStyle;shape=link;curved=1;rounded=0;orthogonalLoop=1;jettySize=auto;html=1;strokeWidth=34;endArrow=none;endFill=0;elbow=vertical;" edge="1" parent="1" source="6DbhtjGuhQsdtJKNO_AA-11" target="6DbhtjGuhQsdtJKNO_AA-13">
          <mxGeometry relative="1" as="geometry" />
        </mxCell>
        <mxCell id="6DbhtjGuhQsdtJKNO_AA-11" value="Is my source system configured to support migration?" style="whiteSpace=wrap;html=1;rounded=1;fillColor=#f0a30a;fontColor=#000000;strokeColor=#BD7000;" vertex="1" parent="1">
          <mxGeometry x="434.5" y="827" width="120" height="105" as="geometry" />
        </mxCell>
        <mxCell id="lDhl-UMNISzQaXPUwUom-8" style="edgeStyle=orthogonalEdgeStyle;shape=link;curved=1;rounded=0;orthogonalLoop=1;jettySize=auto;html=1;entryX=0.5;entryY=1;entryDx=0;entryDy=0;strokeWidth=34;endArrow=none;endFill=0;elbow=vertical;" edge="1" parent="1" source="6DbhtjGuhQsdtJKNO_AA-13" target="6DbhtjGuhQsdtJKNO_AA-15">
          <mxGeometry relative="1" as="geometry" />
        </mxCell>
        <mxCell id="6DbhtjGuhQsdtJKNO_AA-13" value="Prototype Migration Configuration" style="whiteSpace=wrap;html=1;rounded=1;fillColor=#a20025;fontColor=#ffffff;strokeColor=#6F0000;" vertex="1" parent="1">
          <mxGeometry x="212.5" y="841" width="120" height="105" as="geometry" />
        </mxCell>
        <mxCell id="lDhl-UMNISzQaXPUwUom-17" style="edgeStyle=orthogonalEdgeStyle;shape=link;curved=1;rounded=0;orthogonalLoop=1;jettySize=auto;html=1;strokeWidth=34;endArrow=none;endFill=0;elbow=vertical;" edge="1" parent="1" source="6DbhtjGuhQsdtJKNO_AA-15" target="lDhl-UMNISzQaXPUwUom-16">
          <mxGeometry relative="1" as="geometry" />
        </mxCell>
        <mxCell id="6DbhtjGuhQsdtJKNO_AA-15" value="Run the proof of concept" style="whiteSpace=wrap;html=1;rounded=1;fillColor=#60a917;strokeColor=#2D7600;fontColor=#ffffff;" vertex="1" parent="1">
          <mxGeometry x="11.5" y="704" width="120" height="81" as="geometry" />
        </mxCell>
        <mxCell id="lDhl-UMNISzQaXPUwUom-15" style="edgeStyle=orthogonalEdgeStyle;shape=link;curved=1;rounded=0;orthogonalLoop=1;jettySize=auto;html=1;entryX=0.5;entryY=1;entryDx=0;entryDy=0;strokeWidth=34;endArrow=none;endFill=0;elbow=vertical;" edge="1" parent="1" source="lDhl-UMNISzQaXPUwUom-13" target="6DbhtjGuhQsdtJKNO_AA-1">
          <mxGeometry relative="1" as="geometry" />
        </mxCell>
        <mxCell id="lDhl-UMNISzQaXPUwUom-13" value="Start" style="ellipse;whiteSpace=wrap;html=1;aspect=fixed;fillColor=#008a00;strokeColor=#005700;fontColor=#ffffff;" vertex="1" parent="1">
          <mxGeometry x="121" y="428" width="80" height="80" as="geometry" />
        </mxCell>
        <mxCell id="lDhl-UMNISzQaXPUwUom-16" value="End" style="ellipse;whiteSpace=wrap;html=1;aspect=fixed;fillColor=#e51400;strokeColor=#B20000;fontColor=#ffffff;" vertex="1" parent="1">
          <mxGeometry x="115" y="534" width="80" height="80" as="geometry" />
        </mxCell>
        <mxCell id="Y-CTzk3Df4es0ghuvNna-1" value="" style="shape=link;html=1;rounded=0;flowAnimation=1;fillColor=#f8cecc;strokeColor=#b85450;labelBackgroundColor=#ff0505;targetPerimeterSpacing=0;sourcePerimeterSpacing=0;endSize=0;startSize=0;strokeWidth=6;fixDash=0;editable=1;movable=1;resizable=1;rotatable=1;deletable=1;locked=0;connectable=1;startFill=1;endFill=1;snapToPoint=0;bendable=0;noJump=0;orthogonalLoop=0;orthogonal=0;enumerate=0;comic=1;" edge="1" parent="1">
          <mxGeometry width="100" relative="1" as="geometry">
            <mxPoint x="105" y="222" as="sourcePoint" />
            <mxPoint x="395" y="228" as="targetPoint" />
            <Array as="points">
              <mxPoint x="105" y="200" />
              <mxPoint x="281" y="200" />
              <mxPoint x="281" y="228" />
            </Array>
          </mxGeometry>
        </mxCell>
      </root>
    </mxGraphModel>
  </diagram>
</mxfile>
